<?xml version="1.0" encoding="UTF-8"?><svg id="Capa_2" xmlns="http://www.w3.org/2000/svg" viewBox="0 0 661.35 188.43"><defs><style>.cls-1{fill:#10b981;}.cls-2{fill:#8b5cf6;}</style></defs><g id="Capa_2-2"><path class="cls-1" d="M108.66,41.04l-45.66,115.4c-2.7,6.81-5.97,12.59-9.83,17.34-3.85,4.75-8.32,8.38-13.39,10.88-5.08,2.51-10.88,3.76-17.44,3.76-2.83,0-5.59-.23-8.29-.67-2.7-.46-5.13-1.2-7.32-2.22v-21.19c1.66.38,3.7.77,6.07,1.15,2.38.39,4.59.58,6.64.58,5.78,0,9.99-1.35,12.62-4.05s4.98-6.23,7.03-10.59h0c1.52-3.55,1.57-7.56.15-11.15L0,41.04h27.16l18.27,48.64c3.08,8.19,14.66,8.18,17.72-.02l18.15-48.63h27.36Z"/><path class="cls-1" d="M211.16,70.23c-2.31-6.1-5.65-11.53-10.02-16.28s-9.66-8.48-15.89-11.18c-6.23-2.7-13.46-4.04-21.68-4.04-9.76,0-18.59,2.37-26.49,7.12-7.9,4.76-14.13,11.21-18.69,19.37-4.56,8.16-6.84,17.5-6.84,28.03s2.25,19.39,6.75,27.74c4.49,8.35,10.79,14.97,18.88,19.85,8.09,4.88,17.53,7.32,28.32,7.32,7.19,0,13.77-1.09,19.75-3.28,5.97-2.18,11.14-5.2,15.51-9.05,4.36-3.86,7.57-8.29,9.63-13.3l-20.42-10.01c-2.31,4.11-5.49,7.38-9.54,9.82-4.05,2.44-8.96,3.66-14.74,3.66s-10.88-1.35-15.31-4.04c-4.44-2.7-7.78-6.52-10.02-11.47h0c-2.11-4.65,1.29-9.92,6.4-9.92h66.52c.51-1.41.87-3.08,1.06-5.01.19-1.93.29-3.79.29-5.59,0-7.06-1.16-13.64-3.47-19.74ZM140.16,75.04c2.12-5.07,5.24-8.92,9.35-11.56,4.11-2.63,8.79-3.95,14.06-3.95s10.24,1.35,14.16,4.05c3.92,2.7,6.75,6.36,8.48,10.98.79,2.11,1.28,4.36,1.47,6.74h-49.35c.41-2.24,1.02-4.33,1.83-6.26Z"/><path class="cls-1" d="M321.75,78.41v67.44h-25.24v-61.46c0-4.63-.9-8.61-2.7-11.95-1.8-3.34-4.27-5.94-7.42-7.8-3.14-1.86-6.83-2.79-11.07-2.79s-7.78.93-10.98,2.79c-3.22,1.86-5.72,4.46-7.52,7.8-1.8,3.34-2.7,7.32-2.7,11.95v61.46h-25.23V41.04h23.69v3.22c0,2.94,3.47,4.54,5.67,2.59,1.35-1.2,2.84-2.27,4.45-3.21,5.58-3.28,12.1-4.91,19.55-4.91s14.55,1.67,20.52,5.01c5.97,3.34,10.63,7.99,13.97,13.96,3.34,5.98,5.01,12.88,5.01,20.71Z"/><path class="cls-1" d="M419.52,0v51.6c-3.02-3.3-6.65-6.02-10.88-8.15-6.23-3.15-13.33-4.72-21.29-4.72-9.89,0-18.85,2.44-26.88,7.32-8.03,4.88-14.35,11.43-18.98,19.65-4.62,8.22-6.93,17.47-6.93,27.74s2.31,19.4,6.93,27.75c4.63,8.35,10.92,14.93,18.88,19.74,7.97,4.82,17.02,7.23,27.17,7.23,7.58,0,14.58-1.51,21-4.53,1.48-.7,2.89-1.47,4.23-2.31,3.52-2.21,8.1.21,8.1,4.37v.16h23.89V0h-25.24ZM415.76,109.82c-2.5,4.75-5.94,8.48-10.3,11.17-4.37,2.7-9.44,4.05-15.22,4.05s-10.73-1.35-15.22-4.05c-4.5-2.69-8-6.42-10.5-11.17-2.51-4.75-3.76-10.21-3.76-16.38s1.25-11.59,3.76-16.28c2.5-4.69,6-8.41,10.5-11.17,4.49-2.76,9.56-4.14,15.22-4.14s10.85,1.34,15.22,4.04c4.36,2.7,7.8,6.46,10.3,11.27,2.51,4.82,3.76,10.25,3.76,16.28s-1.25,11.63-3.76,16.38Z"/><path class="cls-1" d="M545.91,56.55c-3.66-5.59-8.77-9.96-15.32-13.1-6.55-3.15-14.13-4.72-22.73-4.72-7.07,0-13.62,1.15-19.65,3.46-6.04,2.32-11.27,5.49-15.71,9.54-4.43,4.05-7.67,8.83-9.73,14.35l20.62,10.02c1.93-4.75,4.98-8.57,9.15-11.46,4.17-2.89,8.96-4.34,14.35-4.34,5.78,0,10.44,1.52,13.97,4.53,3.53,3.02,5.3,6.78,5.3,11.27v3.39l-31.21,5.09c-8.22,1.28-15.03,3.47-20.42,6.55-5.4,3.08-9.38,6.91-11.95,11.46-2.57,4.56-3.85,9.73-3.85,15.51s1.47,11.34,4.43,15.9c2.95,4.56,7.13,8.06,12.52,10.5,5.4,2.44,11.76,3.66,19.08,3.66,5.78,0,11.04-.81,15.79-2.41,4.76-1.61,8.99-3.92,12.72-6.94.01-.01.03-.02.04-.04,1.69-1.36,4.2-.22,4.2,1.95v5.12h23.89v-69.75c0-7.45-1.83-13.97-5.49-19.55ZM526.16,103.08c0,4.75-1.13,9.12-3.37,13.1-2.25,3.98-5.4,7.09-9.44,9.34-4.05,2.25-8.7,3.37-13.97,3.37-4.11,0-7.55-1.06-10.31-3.18-2.76-2.12-4.14-4.97-4.14-8.57s1.22-6.74,3.66-9.06c2.44-2.31,6.17-3.91,11.18-4.81l22.15-3.77c2.22-.38,4.24,1.33,4.24,3.58h0Z"/><path class="cls-2" d="M622.52,96.87c-.8,2.21-2.55,3.33-4.46,3.41-2.1.09-3.99-1.13-4.78-3.26l-7.39-20.11c-1.25-3.41-4.15-6.61-7.58-7.88l-20.67-7.64c-2.17-.8-3.34-2.63-3.28-4.77s1.41-3.71,3.57-4.51l20.42-7.54c3.31-1.22,6.21-4.32,7.42-7.59l7.5-20.4c.75-2.04,2.45-3.23,4.38-3.3,2.19-.07,3.98,1.12,4.79,3.32l7.46,20.33c1.58,4.31,5.19,6.92,9.29,8.41l18.89,6.87c1.99.72,3.18,2.53,3.26,4.4.09,2.11-1.13,4.01-3.27,4.78l-18.84,6.84c-4.78,1.73-8.09,4.83-9.83,9.63l-6.88,19Z"/></g></svg>