<?xml version="1.0" encoding="UTF-8"?><svg id="Capa_2" xmlns="http://www.w3.org/2000/svg" viewBox="0 0 394.85 137.32"><defs><style>.cls-1,.cls-2{fill:#10b981;}.cls-2{stroke:#10b981;stroke-miterlimit:10;stroke-width:.75px;}</style></defs><g id="Capa_2-2"><path class="cls-2" d="M91.5,29.28h-14.98c-1.4.09-2.73.28-3.99.59-5.07,1.18-9.56,3.91-12.98,7.88-1.35,1.56-2.49,3.27-3.39,5.07v.02l-.13.24-18.26,48.07c-.08.32-.21.65-.36,1.01-.05.14-.11.24-.14.31-1.2,2.29-3.5,3.69-6.03,3.69-3.49,0-6.38-2.62-6.74-6.08-.03-.21-.04-.46-.04-.69,0-.2,0-.41.03-.62V29.6h-15.9v60.78c.35,2.59,1.11,5.08,2.26,7.42,3.21,6.5,9.09,11.2,16.12,12.91.77.19,1.44.7,1.81,1.41.38.72.43,1.58.14,2.34-1.43,3.73-5.07,6.24-9.06,6.24H.38v16.25h21.82c6.97-.49,13.41-3.93,17.7-9.46,1.27-1.63,2.32-3.43,3.15-5.34l.07-.17.65-1.73c.16-.45.29-.92.42-1.39l.27-1.1h.25l25.65-67.52c1.06-2.82,3.82-4.72,6.84-4.72h14.33c.22,0-.03-16.25-.03-16.25Z"/><path class="cls-1" d="M235.17,108.15h-16.69v-45.44c0-9.32-7.66-16.9-17.07-16.9s-17.07,7.58-17.07,16.9v45.44h-16.69v-45.44c0-18.52,15.14-33.59,33.76-33.59s33.76,15.07,33.76,33.59v45.44Z"/><path class="cls-1" d="M158.85,51.89c-1.64-4.34-4.06-8.25-7.17-11.64-3.1-3.37-6.91-6.05-11.33-7.97-4.44-1.92-9.67-2.89-15.55-2.89-6.95,0-13.33,1.72-18.95,5.1-5.63,3.38-10.13,8.04-13.38,13.86-3.25,5.82-4.9,12.6-4.9,20.14s1.63,13.97,4.84,19.93c3.21,5.96,7.76,10.73,13.52,14.2,5.76,3.48,12.6,5.24,20.31,5.24,5.15,0,9.93-.78,14.18-2.34,4.25-1.55,7.97-3.72,11.08-6.46,2.76-2.43,4.89-5.24,6.35-8.34l-13.05-6.4c-1.76,2.76-4.07,5.02-6.89,6.72-3.17,1.91-7.04,2.88-11.52,2.88s-8.49-1.06-11.95-3.17c-3.47-2.12-6.12-5.15-7.87-9.01-1.08-2.37-1.75-4.97-2.01-7.73l-.13-1.32h56.25c.22-.79.37-1.66.47-2.61.14-1.4.21-2.75.21-4.01,0-5.04-.84-9.81-2.49-14.17ZM106.38,54.56c.83-1.98,1.86-3.73,3.09-5.26,1.23-1.52,2.66-2.8,4.28-3.84,3.23-2.07,6.95-3.12,11.05-3.12s8.06,1.08,11.15,3.2c3.09,2.13,5.35,5.05,6.71,8.7.6,1.62.99,3.36,1.15,5.17h-38.86c.32-1.72.8-3.35,1.43-4.85Z"/><path class="cls-1" d="M306.28,0v38.95c-6.93-6.03-15.97-9.69-25.86-9.69-21.75,0-39.44,17.69-39.44,39.44s17.69,39.44,39.44,39.44c9.89,0,18.94-3.66,25.86-9.69v9.57h16.25V0h-16.25ZM280.37,92.2c-12.97,0-23.49-10.52-23.49-23.49s10.51-23.49,23.49-23.49,23.49,10.51,23.49,23.49-10.51,23.49-23.49,23.49Z"/><path class="cls-1" d="M390.98,42.26c-2.58-3.94-6.24-7.06-10.87-9.29-4.67-2.24-10.15-3.38-16.31-3.38-5.07,0-9.82.84-14.12,2.49-4.31,1.65-8.09,3.94-11.24,6.82-2.89,2.63-5.09,5.76-6.56,9.3l13.36,6.49c1.51-3.22,3.75-5.87,6.67-7.89,3.23-2.24,6.99-3.38,11.17-3.38,4.49,0,8.18,1.21,10.97,3.59,2.83,2.42,4.27,5.48,4.27,9.09v3.39l-23.88,3.89c-5.92.93-10.86,2.5-14.7,4.7-3.79,2.16-6.62,4.88-8.42,8.06-1.79,3.18-2.7,6.86-2.7,10.92s1.04,7.99,3.09,11.15c2.06,3.18,5.02,5.65,8.79,7.36,3.82,1.73,8.41,2.61,13.63,2.61,4.12,0,7.93-.58,11.31-1.72,3.37-1.14,6.42-2.8,9.05-4.94,1.05-.86,2.07-1.81,3.01-2.84l1.81-1.97v9.77h15.53v-50.38c0-5.27-1.3-9.92-3.87-13.85ZM378.33,75.99c0,3.68-.88,7.1-2.62,10.17-1.74,3.1-4.22,5.55-7.36,7.28-3.13,1.74-6.76,2.62-10.8,2.62-3.25,0-6.02-.86-8.23-2.56-2.29-1.76-3.46-4.17-3.46-7.14s1.02-5.53,3.02-7.43c1.93-1.83,4.88-3.12,8.76-3.82l20.68-3.5v4.39Z"/></g></svg>