<?xml version="1.0" encoding="UTF-8"?><svg id="Capa_2" xmlns="http://www.w3.org/2000/svg" viewBox="0 0 405.08 145.94"><defs><style>.cls-1{fill:#00c98c;}.cls-2{fill:#8b5cf6;}</style></defs><g id="Capa_2-2"><path class="cls-2" d="M405.07,39.42c.04.77-.41,1.41-1.17,1.69l-10.85,3.94c-3.11,1.13-5.24,3.22-6.32,6.21l-3.96,10.95c-.28.77-.85,1.21-1.59,1.24-.77.04-1.41-.41-1.69-1.16l-4.25-11.59c-.86-2.35-2.83-4.38-5.02-5.19l-11.91-4.4c-.78-.29-1.21-.89-1.18-1.69.02-.74.47-1.29,1.34-1.61l11.77-4.35c2.16-.79,4.09-2.77,4.91-5.02l4.32-11.75c.26-.72.84-1.16,1.53-1.18h.07c.78,0,1.34.41,1.63,1.2l4.3,11.71c.92,2.5,2.99,4.4,6,5.49l10.88,3.95c.68.25,1.13.86,1.16,1.56Z"/><path class="cls-1" d="M47.36,103.05c-10.33,27.26-21.11,37.58-33.74,42.77-.59.24-1.27.1-1.72-.35L.49,134.06c-.78-.78-.54-2.11.47-2.56,10.03-4.43,17.81-12.28,23.13-25.72.15-.37.15-.79,0-1.17L.11,42.53c-.4-1.04.37-2.15,1.48-2.15h18.4c.66,0,1.25.41,1.48,1.03l9.75,26.01c1.54,3.99,3.07,8.76,4.15,13.67h.31c1.38-4.76,2.92-9.68,4.45-13.67l9.75-26.01c.23-.62.82-1.03,1.48-1.03h17.35c1.11,0,1.87,1.11,1.48,2.14l-22.85,60.53Z"/><path class="cls-1" d="M136.89,71.59l-9.19,9.33c-.3.3-.7.47-1.13.47h-31.24c-1.18,0-1.93,1.24-1.42,2.31,2.42,4.99,9.56,9.83,19.8,9.83,5.97,0,12.04-1.47,16.57-3.71,1.13-.56,2.43.33,2.29,1.58l-1.71,15.41c-.06.53-.38,1.01-.86,1.24-5.22,2.55-12.87,4.22-21.36,4.22-21.2,0-38.25-14.75-38.25-37.48s16.28-36.71,36.25-36.71,31.18,13.36,31.18,27.8c0,1.52-.25,3.53-.52,4.92-.06.3-.21.57-.42.79ZM106.65,54.97c-5.82,0-10.81,3.94-12.86,9.19-.41,1.04.36,2.17,1.48,2.17h19.94c.85,0,1.58-.66,1.58-1.51,0,0,0-.02,0-.03,0-4.76-4.15-9.83-10.14-9.83Z"/><path class="cls-1" d="M209.8,60.83v48.74l-22.58-.06v-43c0-5.06-3.38-9.52-10.29-9.52s-11.06,4.3-11.06,9.83v40.81c0,.88-.71,1.59-1.59,1.59h-19.41c-.88,0-1.59-.71-1.59-1.59V41.22c0-.88.71-1.59,1.59-1.59h17.57c.87,0,1.58.71,1.58,1.58v7.79h.16c2.76-7.37,9.98-11.52,21.19-11.52,15.21,0,24.43,8.61,24.43,23.35Z"/><path class="cls-1" d="M272.88,109.37c-.87,0-1.58-.71-1.58-1.58v-7.02h-.15c-3.84,7.07-11.83,10.6-21.51,10.6-17.05,0-33.49-12.9-33.49-36.71,0-22.43,15.98-37.02,35.33-37.02,5.86,0,11.81,1.55,15.4,3.34,1.04.52,2.27-.26,2.27-1.43V1.58c0-.87.71-1.58,1.58-1.58h18.8c.87,0,1.58.71,1.58,1.58v106.2c0,.87-.71,1.58-1.58,1.58h-16.65ZM269.15,64.29c0-.35-.11-.7-.33-.98-2.27-2.81-6.76-5.87-13.34-5.87-9.83,0-16.74,7.68-16.74,17.67s6.91,17.67,16.74,17.67c6.36,0,10.87-3.27,13.39-6.81.19-.27.28-.59.28-.91v-20.76Z"/><path class="cls-1" d="M349.88,114.42c-3.46-1.15-8.4-4.79-10.5-8.19-.59-.95-1.93-1.1-2.64-.23-3.46,4.21-9.38,6.27-16.66,6.27-12.29,0-23.2-8.6-23.2-23.04,0-12.75,9.98-21.35,23.81-22.73l12.4-1.24c.81-.08,1.43-.76,1.43-1.58v-.87c0-4.15-3.38-6.91-10.91-6.91-5.99,0-12.59,1.69-17.54,4.32-.93.49-2.06,0-2.3-1.03l-3.25-13.86c-.16-.66.12-1.37.71-1.71,5.76-3.35,14.74-5.55,23.45-5.55,18.43,0,31.49,8.45,31.49,25.19v22.73c0,7.02,3.61,12.39,8.04,15.02.97.57,1.09,1.92.21,2.63l-13.05,10.49c-.42.34-.99.45-1.5.28ZM334.52,81.28c0-.93-.8-1.66-1.73-1.58l-6.72.61c-5.84.46-8.45,4.61-8.45,8.76,0,3.69,2.77,6.76,7.07,6.76,5.38,0,9.83-4.15,9.83-10.14v-4.41Z"/></g></svg>