<?xml version="1.0" encoding="UTF-8"?><svg id="Capa_2" xmlns="http://www.w3.org/2000/svg" viewBox="0 0 182.21 180.14"><defs><style>.cls-1{fill:#fff;}.cls-2{fill:#00c98c;}</style></defs><g id="Capa_1-2"><rect class="cls-2" width="182.21" height="180.14" rx="43.11" ry="43.11"/><path class="cls-1" d="M106.07,106.4c-12.12,31.98-24.76,44.08-39.58,50.18-.69.28-1.49.11-2.01-.41l-13.38-13.38c-.92-.92-.63-2.47.55-3,11.76-5.2,20.9-14.41,27.13-30.17.17-.44.17-.93,0-1.37l-28.13-72.83c-.47-1.22.43-2.53,1.73-2.53h21.59c.77,0,1.47.48,1.74,1.21l11.44,30.51c1.8,4.68,3.6,10.27,4.87,16.04h.36c1.62-5.59,3.42-11.35,5.23-16.04l11.44-30.51c.27-.73.97-1.21,1.74-1.21h20.35c1.3,0,2.2,1.3,1.74,2.51l-26.8,71Z"/></g></svg>