<?xml version="1.0" encoding="UTF-8"?><svg id="Capa_2" xmlns="http://www.w3.org/2000/svg" viewBox="0 0 209.74 209.74"><defs><style>.cls-1{fill:#fff;}.cls-2{fill:#10b981;}</style></defs><g id="Capa_2-2"><rect class="cls-2" width="209.74" height="209.74"/><path class="cls-1" d="M170.54,40.61l-.26,23.18h-19c-3.14,0-5.96,1.94-7.08,4.88l-10.86,28.58-5.05,13.31-8.93,23.5-6.46,17.04h-.15c-.16.61-.34,1.22-.54,1.82l-.03.08-.82,2.16s-.04.07-.05.1c-1.06,2.48-2.43,4.8-4.07,6.9-5.34,6.89-13.49,11.49-22.72,12.12h-28.22v-23.18h26.45c3.46,0,6.56-2.14,7.79-5.38l1.07-2.83c-9.87-1.78-18.13-8.19-22.44-16.91-1.47-2.97-2.48-6.21-2.93-9.63V40.99h22.76v73.38c-.03.21-.04.43-.04.65s0,.44.04.65c.33,3.24,3.06,5.77,6.38,5.77,2.48,0,4.62-1.4,5.69-3.45.05-.09.09-.18.12-.27.17-.34.31-.71.39-1.09l11.8-31.06,8.4-22.13s.02-.04.02-.06l1.91-5.02s0-.02.02-.03c1.2-2.5,2.73-4.81,4.52-6.88,4.27-4.95,10.05-8.55,16.64-10.09,1.67-.39,3.39-.64,5.15-.75h20.5Z"/></g></svg>