<?xml version="1.0" encoding="UTF-8"?><svg id="Capa_2" xmlns="http://www.w3.org/2000/svg" viewBox="0 0 422.58 134.79"><defs><style>.cls-1{fill:#10b981;}</style></defs><g id="Capa_2-2"><path class="cls-1" d="M89.7,28.82h-14.75c-1.37.09-2.69.28-3.93.58-4.99,1.16-9.41,3.84-12.78,7.75-1.33,1.54-2.45,3.22-3.33,4.99v.02l-.12.24-17.97,47.31c-.08.32-.2.64-.36.99-.05.13-.11.24-.13.31-1.18,2.26-3.45,3.63-5.94,3.63-3.43,0-6.28-2.58-6.63-5.99-.03-.21-.04-.45-.04-.68,0-.2,0-.4.03-.61V29.14h-15.65v59.82c.35,2.55,1.1,5,2.23,7.3,3.16,6.4,8.95,11.02,15.86,12.7.76.18,1.41.69,1.78,1.38.37.71.42,1.56.13,2.31-1.4,3.67-4.99,6.14-8.92,6.14H0v16h21.48c6.86-.48,13.2-3.87,17.42-9.31,1.25-1.6,2.29-3.37,3.1-5.26l.07-.16.64-1.7c.15-.44.29-.9.41-1.36l.27-1.09h.25l25.24-66.45c1.05-2.78,3.76-4.64,6.74-4.64h14.1c.22,0-.03-16-.03-16Z"/><path class="cls-1" d="M237.52,106.45h-16.43v-44.72c0-9.17-7.54-16.63-16.8-16.63s-16.8,7.46-16.8,16.63v44.72h-16.43v-44.72c0-18.23,14.91-33.06,33.23-33.06s33.23,14.83,33.23,33.06v44.72Z"/><path class="cls-1" d="M162.4,51.07c-1.62-4.27-3.99-8.13-7.06-11.46-3.05-3.31-6.8-5.95-11.16-7.84-4.37-1.89-9.52-2.84-15.3-2.84-6.84,0-13.12,1.69-18.65,5.02-5.54,3.32-9.97,7.92-13.17,13.64-3.2,5.73-4.82,12.4-4.82,19.82s1.6,13.75,4.76,19.62c3.16,5.86,7.63,10.57,13.3,13.98,5.67,3.43,12.4,5.15,19.99,5.15,5.07,0,9.77-.77,13.96-2.31,4.19-1.53,7.85-3.66,10.9-6.36,2.72-2.4,4.82-5.15,6.25-8.21l-12.85-6.3c-1.73,2.72-4,4.94-6.78,6.62-3.12,1.88-6.93,2.83-11.34,2.83s-8.35-1.05-11.76-3.12c-3.41-2.09-6.02-5.07-7.75-8.87-1.06-2.33-1.72-4.89-1.97-7.61l-.12-1.3h55.37c.21-.78.36-1.63.46-2.57.14-1.38.21-2.71.21-3.95,0-4.96-.82-9.66-2.45-13.95ZM110.75,53.7c.82-1.95,1.83-3.67,3.04-5.17,1.21-1.49,2.62-2.75,4.21-3.78,3.18-2.04,6.84-3.07,10.88-3.07s7.93,1.06,10.98,3.15c3.04,2.09,5.26,4.97,6.61,8.56.6,1.6.98,3.31,1.13,5.09h-38.25c.31-1.69.78-3.29,1.4-4.78Z"/><path class="cls-1" d="M307.51,0v38.34c-6.82-5.94-15.72-9.54-25.46-9.54-21.4,0-38.82,17.41-38.82,38.82s17.41,38.82,38.82,38.82c9.73,0,18.64-3.6,25.46-9.54v9.42h16V0h-16ZM282.01,90.75c-12.77,0-23.12-10.35-23.12-23.12s10.35-23.12,23.12-23.12,23.12,10.35,23.12,23.12-10.35,23.12-23.12,23.12Z"/><path class="cls-1" d="M403.31,92.87l-16.24-40.56-3.16-7.86-2.58-6.42c-2.13-5.29-6.99-8.84-12.59-9.31h-31.27v15.73h25.2c2.61,0,4.96,1.59,5.94,4.02l2.48,6.18h-13.37c-.33,0-.62,0-.91,0-14.88,0-26.99,11.61-26.99,25.87s12.11,25.88,27,25.88c6.05,0,11.73-2.4,16.69-5.73,2.47-1.66,4.78-3.53,7.02-5.5.44-.39,3.17-2.62,5.09-4.25l.78,1.96,3.39,8.48c1.75,4.38,5.99,7.25,10.71,7.25h22.11v-15.72h-19.27ZM376.29,74.15c-.14.32-3.35,7.71-7.63,12.47-3.95,4.37-10.63,7.3-16.56,6.25-8.47-1.5-11.7-11.72-6.28-18.18,3.33-3.97,9.13-5.03,14.06-4.97,7.41.13,15.2,2.46,15.52,2.56l1.5.45-.61,1.43Z"/></g></svg>