<?xml version="1.0" encoding="UTF-8"?><svg id="Capa_2" xmlns="http://www.w3.org/2000/svg" viewBox="0 0 309.33 309.33"><defs><style>.cls-1{fill:#fff;}.cls-2{fill:#10b981;}.cls-3{fill:#8b5cf6;}</style></defs><g id="Capa_2-2"><rect class="cls-2" width="309.33" height="309.33"/><path class="cls-1" d="M183.84,82.86l-47.99,121.28c-2.83,7.15-6.27,13.22-10.32,18.22-4.05,4.99-8.74,8.81-14.07,11.44-5.34,2.63-11.44,3.95-18.33,3.95-2.97,0-5.87-.24-8.7-.71-2.84-.48-5.4-1.25-7.7-2.33v-22.27c1.76.4,3.88.81,6.38,1.21,2.5.41,4.83.61,6.99.61,6.07,0,10.49-1.42,13.26-4.25,2.76-2.83,5.23-6.55,7.39-11.14h0c1.59-3.73,1.65-7.94.16-11.71l-41.26-104.3h28.54l28.53,75.98,28.37-75.98h28.75Z"/><path class="cls-3" d="M235,165.84c-.8,2.21-2.55,3.33-4.46,3.41-2.1.09-3.99-1.13-4.78-3.26l-7.39-20.11c-1.25-3.41-4.15-6.61-7.58-7.88l-20.67-7.64c-2.17-.8-3.34-2.63-3.28-4.77s1.41-3.71,3.57-4.51l20.42-7.54c3.31-1.22,6.21-4.32,7.42-7.59l7.5-20.4c.75-2.04,2.45-3.23,4.38-3.3,2.19-.07,3.98,1.12,4.79,3.32l7.46,20.33c1.58,4.31,5.19,6.92,9.29,8.41l18.89,6.87c1.99.72,3.18,2.53,3.26,4.4.09,2.11-1.13,4.01-3.27,4.78l-18.84,6.84c-4.78,1.73-8.09,4.83-9.83,9.63l-6.88,19Z"/></g></svg>